<?xml version="1.0" standalone="yes"?>
<svg xmlns="http://www.w3.org/2000/svg" xmlns:xlink="http://www.w3.org/1999/xlink" xmlns:svg="http://www.w3.org/2000/svg" xmlns:dc="http://purl.org/dc/elements/1.1/" xmlns:cc="http://web.resource.org/cc/" xmlns:rdf="http://www.w3.org/1999/02/22-rdf-syntax-ns#" width="771" height="428">
<path style="fill:#ffffff; stroke:none;" d="M0 0L0 428L771 428L771 0L0 0z"/>
<path style="fill:#7f7f7f; stroke:none;" d="M178 44L178 280L208 279L263 279L438 279L537 279L587 280L587 44L178 44z"/>
<path style="fill:#010101; stroke:none;" d="M179 45L179 278L586 278L586 45L179 45z"/>
<path style="fill:#818181; stroke:none;" d="M199 63L199 261L566 261L566 63L199 63z"/>
<path style="fill:#ffffff; stroke:none;" d="M200 64L200 260L565 260L565 64L200 64z"/>
<path style="fill:#010101; stroke:none;" d="M48 372L717 372C706.478 359.269 687.54 350.314 673.996 340.845L616 300.28C606.755 293.809 596.504 283.977 586 279.854C574.774 275.447 556.034 279 544 279L448 279L263 279L206 279C197.673 279 187.077 277.261 179.039 279.569C168.349 282.637 156.471 293.95 147.718 300.599C135.525 309.862 122.596 317.676 110 326.341C94.133 337.256 77.6345 347.967 62.5756 359.91C57.4178 364.001 51.3807 366.015 48 372z"/>
<path style="fill:#616161; stroke:none;" d="M173.667 282.333L174.333 282.667L173.667 282.333z"/>
<path style="fill:#6f6f6f; stroke:none;" d="M170 285L173 283L170 285z"/>
<path style="fill:#969696; stroke:none;" d="M594.667 285.333L595.333 285.667L594.667 285.333z"/>
<path style="fill:#4b4b4b; stroke:none;" d="M166 288L169 286L166 288z"/>
<path style="fill:#a5a5a5; stroke:none;" d="M596 286L599 288L596 286z"/>
<path style="fill:#8f8f8f; stroke:none;" d="M600 289L603 291L600 289z"/>
<path style="fill:#a3a3a3; stroke:none;" d="M603 291L606 293L603 291z"/>
<path style="fill:#a9a9a9; stroke:none;" d="M606 293L609 295L606 293z"/>
<path style="fill:#999999; stroke:none;" d="M613 298L616 300L613 298z"/>
<path style="fill:#454545; stroke:none;" d="M146 302L149 300L146 302z"/>
<path style="fill:#a3a3a3; stroke:none;" d="M617.667 301.333L618.333 301.667L617.667 301.333z"/>
<path style="fill:#616161; stroke:none;" d="M140.667 305.333L141.333 305.667L140.667 305.333z"/>
<path style="fill:#9b9b9b; stroke:none;" d="M623 305L626 307L623 305z"/>
<path style="fill:#797979; stroke:none;" d="M136 309L140 306L136 309z"/>
<path style="fill:#a5a5a5; stroke:none;" d="M626 307L629 309L626 307z"/>
<path style="fill:#4b4b4b; stroke:none;" d="M133 311L136 309L133 311z"/>
<path style="fill:#b1b1b1; stroke:none;" d="M629 309L632 311L629 309z"/>
<path style="fill:#bfbfbf; stroke:none;" d="M632 311L636 314L632 311z"/>
<path style="fill:#373737; stroke:none;" d="M126 315L126 316L132 312L126 315z"/>
<path style="fill:#9e9e9e; stroke:none;" d="M636 314L639 316L636 314z"/>
<path style="fill:#a7a7a7; stroke:none;" d="M649 323L652 325L649 323z"/>
<path style="fill:#969696; stroke:none;" d="M653 326L656 328L653 326z"/>
<path style="fill:#9e9e9e; stroke:none;" d="M656 328L659 330L656 328z"/>
<path style="fill:#969696; stroke:none;" d="M667.667 336.333L668.333 336.667L667.667 336.333z"/>
<path style="fill:#414141; stroke:none;" d="M93 339L96 337L93 339z"/>
<path style="fill:#afafaf; stroke:none;" d="M669 337L672 339L669 337z"/>
<path style="fill:#7f7f7f; stroke:none;" d="M312 340L312 341L361 340L451 340C440.973 335.792 423.896 339 413 339L345 339C334.631 339 321.963 337.055 312 340z"/>
<path style="fill:#c1c1c1; stroke:none;" d="M272 363L493 363C487.145 356.775 476.565 353.71 469.015 349.742C462.947 346.554 456.8 341.86 450 340.39C436.175 337.402 419.146 340 405 340L326 340C310.037 340 301.372 346.626 287.91 353.852C282.348 356.838 275.401 357.007 272 363z"/>
<path style="fill:#858585; stroke:none;" d="M673 340L676 342L673 340z"/>
<path style="fill:#3b3b3b; stroke:none;" d="M83 345L83 346L89 342L83 345z"/>
<path style="fill:#919191; stroke:none;" d="M677.667 343.333L678.333 343.667L677.667 343.333z"/>
<path style="fill:#616161; stroke:none;" d="M464.667 347.333L465.333 347.667L464.667 347.333z"/>
<path style="fill:#656565; stroke:none;" d="M468.667 349.333L469.333 349.667L468.667 349.333z"/>
<path style="fill:#9e9e9e; stroke:none;" d="M686 349L689 351L686 349z"/>
<path style="fill:#5f5f5f; stroke:none;" d="M470.667 350.333L471.333 350.667L470.667 350.333z"/>
<path style="fill:#878787; stroke:none;" d="M285 354L285 355L291 353L285 354z"/>
<path style="fill:#818181; stroke:none;" d="M693 354L696 356L693 354z"/>
<path style="fill:#969696; stroke:none;" d="M696 356L699 358L696 356z"/>
<path style="fill:#737373; stroke:none;" d="M486 358L489 360L486 358z"/>
<path style="fill:#9e9e9e; stroke:none;" d="M700.667 359.333L701.333 359.667L700.667 359.333z"/>
<path style="fill:#4f4f4f; stroke:none;" d="M60 362L63 360L60 362z"/>
<path style="fill:#818181; stroke:none;" d="M269 363L269 364L496 364L479 363L437 363L323 363L269 363z"/>
<path style="fill:#8f8f8f; stroke:none;" d="M706 363L709 365L706 363z"/>
<path style="fill:#a3a3a3; stroke:none;" d="M709 365L712 367L709 365z"/>
<path style="fill:#b1b1b1; stroke:none;" d="M712 367L715 369L712 367z"/>
<path style="fill:#7f7f7f; stroke:none;" d="M44 392L720 392C720 385.436 722.544 373.609 716 370L683 372L574 372L172 372L78 372L49 370C41.242 373.251 44 384.902 44 392z"/>
<path style="fill:#010101; stroke:none;" d="M45 373L45 391L719 391L719 373L45 373z"/>
</svg>
